<svg width="27" height="21" viewBox="0 0 27 21" fill="none" xmlns="http://www.w3.org/2000/svg">
<path d="M22.0359 9.34219C22.0359 9.34219 22.3922 11.0859 22.4719 11.4516H20.9062C21.0609 11.0344 21.6562 9.4125 21.6562 9.4125C21.6469 9.42656 21.8109 8.98594 21.9047 8.71406L22.0359 9.34219ZM27 2.25V18.75C27 19.9922 25.9922 21 24.75 21H2.25C1.00781 21 0 19.9922 0 18.75V2.25C0 1.00781 1.00781 0 2.25 0H24.75C25.9922 0 27 1.00781 27 2.25ZM7.14844 14.025L10.1109 6.75H8.11875L6.27656 11.7188L6.075 10.7109L5.41875 7.36406C5.31094 6.9 4.97813 6.76875 4.56563 6.75H1.53281L1.5 6.89531C2.24062 7.08281 2.90156 7.35469 3.47812 7.69687L5.15625 14.025H7.14844ZM11.5734 14.0344L12.7547 6.75H10.8703L9.69375 14.0344H11.5734ZM18.1312 11.6531C18.1406 10.8234 17.6344 10.1906 16.5516 9.67031C15.8906 9.3375 15.4875 9.1125 15.4875 8.77031C15.4969 8.46094 15.8297 8.14219 16.5703 8.14219C17.1844 8.12813 17.6344 8.27344 17.9719 8.41875L18.1406 8.49844L18.3984 6.92344C18.0281 6.77812 17.4375 6.61406 16.7109 6.61406C14.85 6.61406 13.5422 7.60781 13.5328 9.02344C13.5188 10.0688 14.4703 10.65 15.1828 11.0016C15.9094 11.3578 16.1578 11.5922 16.1578 11.9062C16.1484 12.3938 15.5672 12.6188 15.0281 12.6188C14.2781 12.6188 13.875 12.5016 13.2609 12.2297L13.0125 12.1125L12.75 13.7484C13.1906 13.95 14.0062 14.1281 14.85 14.1375C16.8281 14.1422 18.1172 13.1625 18.1312 11.6531ZM24.75 14.0344L23.2313 6.75H21.7734C21.3234 6.75 20.9813 6.88125 20.7891 7.35469L17.9906 14.0344H19.9688C19.9688 14.0344 20.2922 13.1344 20.3625 12.9422H22.7812C22.8375 13.2 23.0062 14.0344 23.0062 14.0344H24.75Z" fill="white"/>
</svg>
