<svg width="24" height="16" viewBox="0 0 24 16" fill="none" xmlns="http://www.w3.org/2000/svg">
<path d="M7.38388 0.789071C6.43683 0.788949 5.49903 0.97538 4.62403 1.33772C3.74904 1.70005 2.95399 2.2312 2.28428 2.90082C1.61457 3.57044 1.08332 4.36543 0.720874 5.24038C0.358426 6.11532 0.171875 7.0531 0.171875 8.00015C0.172128 9.37061 0.562903 10.7126 1.29842 11.869C2.03394 13.0253 3.08375 13.9482 4.32487 14.5293C5.56599 15.1105 6.94703 15.326 8.30621 15.1505C9.66539 14.9751 10.9464 14.4159 11.9993 13.5386C13.0521 14.4164 14.3333 14.976 15.6927 15.1517C17.0521 15.3275 18.4335 15.1121 19.6749 14.5308C20.9163 13.9496 21.9664 13.0266 22.702 11.8699C23.4376 10.7133 23.8282 9.3709 23.8282 8.00015C23.8282 6.6294 23.4376 5.28704 22.702 4.13039C21.9664 2.97374 20.9163 2.05071 19.6749 1.46946C18.4335 0.888218 17.0521 0.672843 15.6927 0.848576C14.3333 1.02431 13.0521 1.58387 11.9993 2.46169C10.7054 1.37875 9.07116 0.786517 7.38388 0.789071ZM16.6146 2.63522C18.0372 2.63645 19.4012 3.20204 20.4072 4.20787C21.4132 5.21369 21.979 6.57757 21.9805 8.00015C21.9793 9.42288 21.4135 10.787 20.4075 11.793C19.4015 12.7991 18.0374 13.3648 16.6146 13.366C15.3426 13.366 14.1888 12.8952 13.2685 12.154C14.1303 10.9402 14.594 9.48878 14.5959 8.00015C14.594 6.51151 14.1303 5.06014 13.2685 3.8463C14.1888 3.10415 15.3426 2.6343 16.6146 2.6343V2.63522Z" fill="white"/>
</svg>
