<svg width="27" height="22" viewBox="0 0 27 22" fill="none" xmlns="http://www.w3.org/2000/svg">
<path d="M22.6359 18.2328C22.6359 18.5516 22.4203 18.7812 22.1109 18.7812C21.7922 18.7812 21.5859 18.5375 21.5859 18.2328C21.5859 17.9281 21.7922 17.6844 22.1109 17.6844C22.4203 17.6844 22.6359 17.9281 22.6359 18.2328ZM8.06719 17.6844C7.73438 17.6844 7.54219 17.9281 7.54219 18.2328C7.54219 18.5375 7.73438 18.7812 8.06719 18.7812C8.37188 18.7812 8.57812 18.5516 8.57812 18.2328C8.57344 17.9281 8.37188 17.6844 8.06719 17.6844ZM13.575 17.6703C13.3219 17.6703 13.1672 17.8344 13.1297 18.0781H14.025C13.9828 17.8109 13.8188 17.6703 13.575 17.6703ZM18.6281 17.6844C18.3094 17.6844 18.1172 17.9281 18.1172 18.2328C18.1172 18.5375 18.3094 18.7812 18.6281 18.7812C18.9469 18.7812 19.1531 18.5516 19.1531 18.2328C19.1531 17.9281 18.9469 17.6844 18.6281 17.6844ZM23.5922 18.9078C23.5922 18.9219 23.6063 18.9312 23.6063 18.9594C23.6063 18.9734 23.5922 18.9828 23.5922 19.0109C23.5781 19.025 23.5781 19.0344 23.5687 19.0484C23.5547 19.0625 23.5453 19.0719 23.5172 19.0719C23.5031 19.0859 23.4937 19.0859 23.4656 19.0859C23.4516 19.0859 23.4422 19.0859 23.4141 19.0719C23.4 19.0719 23.3906 19.0578 23.3766 19.0484C23.3625 19.0344 23.3531 19.025 23.3531 19.0109C23.3391 18.9875 23.3391 18.9734 23.3391 18.9594C23.3391 18.9359 23.3391 18.9219 23.3531 18.9078C23.3531 18.8844 23.3672 18.8703 23.3766 18.8563C23.3906 18.8422 23.4 18.8422 23.4141 18.8328C23.4375 18.8188 23.4516 18.8187 23.4656 18.8187C23.4891 18.8187 23.5031 18.8188 23.5172 18.8328C23.5406 18.8469 23.5547 18.8469 23.5687 18.8563C23.5828 18.8656 23.5781 18.8844 23.5922 18.9078ZM23.4891 18.9734C23.5125 18.9734 23.5125 18.9594 23.5266 18.9594C23.5406 18.9453 23.5406 18.9359 23.5406 18.9219C23.5406 18.9078 23.5406 18.8984 23.5266 18.8844C23.5125 18.8844 23.5031 18.8703 23.475 18.8703H23.4V19.0344H23.4375V18.9688H23.4516L23.5031 19.0344H23.5406L23.4891 18.9734ZM27 2.79688V19.2969C27 20.5391 25.9922 21.5469 24.75 21.5469H2.25C1.00781 21.5469 0 20.5391 0 19.2969V2.79688C0 1.55469 1.00781 0.546875 2.25 0.546875H24.75C25.9922 0.546875 27 1.55469 27 2.79688ZM3 9.34063C3 12.9266 5.91094 15.8328 9.49219 15.8328C10.7672 15.8328 12.0188 15.4484 13.0781 14.75C9.66094 11.9703 9.68437 6.725 13.0781 3.94531C12.0188 3.24219 10.7672 2.8625 9.49219 2.8625C5.91094 2.85781 3 5.76875 3 9.34063ZM13.5 14.4406C16.8047 11.8625 16.7906 6.8375 13.5 4.24531C10.2094 6.8375 10.1953 11.8672 13.5 14.4406ZM6.82969 18.0172C6.82969 17.6094 6.5625 17.3422 6.14062 17.3281C5.925 17.3281 5.69531 17.3937 5.54062 17.6328C5.42812 17.4406 5.23594 17.3281 4.96875 17.3281C4.79063 17.3281 4.6125 17.3937 4.47188 17.5812V17.375H4.0875V19.0953H4.47188C4.47188 18.2094 4.35469 17.6797 4.89375 17.6797C5.37188 17.6797 5.27812 18.1578 5.27812 19.0953H5.64844C5.64844 18.2375 5.53125 17.6797 6.07031 17.6797C6.54844 17.6797 6.45469 18.1484 6.45469 19.0953H6.83906V18.0172H6.82969ZM8.93438 17.375H8.56406V17.5812C8.4375 17.4266 8.25937 17.3281 8.01562 17.3281C7.53281 17.3281 7.1625 17.7125 7.1625 18.2328C7.1625 18.7578 7.53281 19.1375 8.01562 19.1375C8.25937 19.1375 8.4375 19.0484 8.56406 18.8844V19.1H8.93438V17.375ZM10.8328 18.575C10.8328 17.8719 9.75937 18.1906 9.75937 17.8625C9.75937 17.5953 10.3172 17.6375 10.6266 17.8109L10.7812 17.5062C10.3406 17.2203 9.36563 17.225 9.36563 17.8906C9.36563 18.5609 10.4391 18.2797 10.4391 18.5938C10.4391 18.8891 9.80625 18.8656 9.46875 18.6312L9.30469 18.9266C9.82969 19.2828 10.8328 19.2078 10.8328 18.575ZM12.4922 19.0109L12.3891 18.6922C12.2109 18.7906 11.8172 18.8984 11.8172 18.5V17.7219H12.4313V17.375H11.8172V16.85H11.4328V17.375H11.0766V17.7172H11.4328V18.5C11.4328 19.325 12.2437 19.175 12.4922 19.0109ZM13.1156 18.3828H14.4047C14.4047 17.6234 14.0578 17.3234 13.5891 17.3234C13.0922 17.3234 12.7359 17.6938 12.7359 18.2281C12.7359 19.1891 13.7953 19.3484 14.3203 18.8937L14.1422 18.6125C13.7766 18.9125 13.2234 18.8844 13.1156 18.3828ZM15.8859 17.375C15.6703 17.2812 15.3422 17.2906 15.1734 17.5812V17.375H14.7891V19.0953H15.1734V18.125C15.1734 17.5812 15.6187 17.6516 15.7734 17.7313L15.8859 17.375ZM16.3828 18.2328C16.3828 17.6984 16.9266 17.525 17.3531 17.8391L17.5312 17.5344C16.9875 17.1078 15.9984 17.3422 15.9984 18.2375C15.9984 19.1656 17.0484 19.3531 17.5312 18.9406L17.3531 18.6359C16.9219 18.9406 16.3828 18.7578 16.3828 18.2328ZM19.5094 17.375H19.125V17.5812C18.7359 17.0656 17.7234 17.3562 17.7234 18.2328C17.7234 19.1328 18.7734 19.3906 19.125 18.8844V19.1H19.5094V17.375ZM21.0891 17.375C20.9766 17.3188 20.5734 17.2391 20.3766 17.5812V17.375H20.0062V19.0953H20.3766V18.125C20.3766 17.6094 20.7984 17.6422 20.9766 17.7313L21.0891 17.375ZM22.9781 16.6766H22.6078V17.5812C22.2234 17.0703 21.2062 17.3422 21.2062 18.2328C21.2062 19.1422 22.2609 19.3859 22.6078 18.8844V19.1H22.9781V16.6766ZM23.3344 13.1562V13.3719H23.3719V13.1562H23.4609V13.1188H23.2453V13.1562H23.3344ZM23.6437 18.9594C23.6437 18.9359 23.6438 18.9078 23.6297 18.8844C23.6156 18.8703 23.6062 18.8469 23.5922 18.8328C23.5781 18.8188 23.5547 18.8094 23.5406 18.7953C23.5172 18.7953 23.4891 18.7812 23.4656 18.7812C23.4516 18.7812 23.4281 18.7953 23.4 18.7953C23.3766 18.8094 23.3625 18.8188 23.3484 18.8328C23.325 18.8469 23.3109 18.8703 23.3109 18.8844C23.2969 18.9078 23.2969 18.9359 23.2969 18.9594C23.2969 18.9734 23.2969 18.9969 23.3109 19.025C23.3109 19.0391 23.325 19.0625 23.3484 19.0766C23.3625 19.0906 23.3719 19.1 23.4 19.1141C23.4234 19.1281 23.4516 19.1281 23.4656 19.1281C23.4891 19.1281 23.5172 19.1281 23.5406 19.1141C23.5547 19.1 23.5781 19.0906 23.5922 19.0766C23.6062 19.0625 23.6156 19.0391 23.6297 19.025C23.6438 18.9969 23.6437 18.9734 23.6437 18.9594ZM23.7938 13.1141H23.7281L23.6531 13.2781L23.5781 13.1141H23.5125V13.3672H23.55V13.175L23.625 13.3391H23.6766L23.7422 13.175V13.3672H23.7938V13.1141ZM24 9.34063C24 5.76875 21.0891 2.85781 17.5078 2.85781C16.2328 2.85781 14.9812 3.24219 13.9219 3.94063C17.3016 6.72031 17.3531 11.9797 13.9219 14.7453C14.9812 15.4484 16.2422 15.8281 17.5078 15.8281C21.0891 15.8328 24 12.9266 24 9.34063Z" fill="white"/>
</svg>
