<svg width="25" height="24" viewBox="0 0 25 24" fill="none" xmlns="http://www.w3.org/2000/svg">
<path d="M16.7197 14.379C16.7197 14.0588 16.5824 13.8833 16.3754 13.758C16.1647 13.6372 15.9104 13.6207 15.5624 13.6207H14.0197V16.4408H14.6954V15.414H15.4184C15.6562 15.414 15.8054 15.438 15.8947 15.5392C16.0154 15.6683 16.0004 15.918 16.0004 16.0905V16.4385H16.6567V15.8835C16.6567 15.6337 16.6417 15.5085 16.5517 15.3675C16.4634 15.2617 16.3488 15.181 16.2194 15.1335L16.2382 15.1252C16.4219 15.0555 16.7197 14.8283 16.7197 14.379ZM15.8482 14.7847L15.8204 14.781C15.7304 14.8358 15.6254 14.8403 15.4882 14.8403H14.6804V14.211H15.5047C15.6254 14.211 15.7424 14.211 15.8369 14.262C15.884 14.2849 15.9232 14.3214 15.9495 14.3666C15.9758 14.4119 15.988 14.464 15.9847 14.5162C15.9847 14.637 15.9374 14.73 15.8519 14.7855L15.8482 14.7847ZM21.0007 15.8363H19.7039V16.4385H21.0089C21.6839 16.4385 22.0589 16.1602 22.0589 15.5557C22.0589 15.2737 21.9929 15.1058 21.8722 14.9738C21.7199 14.841 21.4769 14.778 21.1424 14.7667L20.7667 14.751C20.6617 14.751 20.5874 14.751 20.5094 14.7203C20.4649 14.7063 20.4262 14.6781 20.3992 14.6401C20.3723 14.602 20.3585 14.5561 20.3602 14.5095C20.3602 14.4195 20.3759 14.3453 20.4502 14.3025C20.5336 14.256 20.6285 14.2341 20.7239 14.2395H21.9502V13.6388H20.6024C19.8997 13.6388 19.6454 14.076 19.6454 14.4788C19.6454 15.381 20.4194 15.3337 21.0524 15.3495C21.1537 15.3495 21.2317 15.3645 21.2744 15.4072C21.3217 15.4395 21.3562 15.513 21.3562 15.5873C21.3562 15.6653 21.3209 15.7395 21.2782 15.7673C21.2204 15.8213 21.1304 15.837 21.0014 15.837L21.0007 15.8363ZM0.703422 0V10.098L1.51267 8.21925H3.26242L3.48817 8.68425V8.21925H5.53117L5.98042 9.2385L6.41842 8.2275H12.9224C13.2157 8.2275 13.4804 8.28525 13.6762 8.46525V8.23425H15.4649V8.46525C15.7687 8.2935 16.1482 8.23425 16.5817 8.23425H19.1864L19.4294 8.69925V8.23425H21.3472L21.5999 8.69925V8.2305H23.4599V12.1807H21.5729L21.2137 11.5785V12.1642H18.8579L18.6037 11.535H18.0179L17.7487 12.1478H16.5374C16.0567 12.1478 15.6974 12.0465 15.4552 11.91V12.1478H12.5639V11.2657C12.5639 11.145 12.5369 11.145 12.4627 11.1285H12.3569V12.1635H6.76717V11.6873L6.55642 12.1635H5.39242L5.18917 11.6873V12.1515H2.93542L2.68117 11.5268H2.09917L1.84642 12.1515H0.701172V23.9993H24.4859V16.89C24.2167 17.0258 23.8732 17.0693 23.5132 17.0693H21.7912V16.815C21.5804 16.9792 21.2212 17.0693 20.8769 17.0693H15.4117V16.1715C15.4117 16.0508 15.3914 16.0507 15.2909 16.0507H15.2167V17.0737H13.4159V16.008C13.1189 16.1453 12.7709 16.1558 12.4859 16.1453H12.2752V17.0595H10.0964L9.55342 16.4415L8.98267 17.0438H5.44342V13.1138H9.05317L9.57217 13.716L10.1272 13.1138H12.5369C12.8182 13.1138 13.2749 13.146 13.4782 13.341V13.0988H15.6539C15.8572 13.0988 16.2989 13.146 16.5599 13.3245V13.0868H19.8217V13.3245C19.9859 13.1603 20.3339 13.0868 20.6264 13.0868H22.5164V13.3245C22.7122 13.1768 22.9814 13.0868 23.3564 13.0868H24.5324V0.00075L0.703422 0ZM21.8594 14.9528C21.8632 14.961 21.8632 14.9685 21.8677 14.973C21.8797 14.9798 21.8947 14.9798 21.9029 14.9918L21.8602 14.9565L21.8594 14.9528ZM24.5317 13.0823H24.5984V13.6373H24.5317V13.0823ZM24.5662 15.0308V15.0225C24.5392 14.9993 24.5234 14.9768 24.4919 14.9528C24.3442 14.8005 24.1012 14.7375 23.7299 14.73L23.3669 14.7188C23.2499 14.7188 23.1757 14.7105 23.0977 14.688C23.0532 14.674 23.0146 14.6458 22.9876 14.6077C22.9607 14.5697 22.9469 14.5238 22.9484 14.4772C22.9484 14.3872 22.9792 14.316 23.0384 14.2733C23.1127 14.2305 23.1862 14.223 23.3077 14.223H24.5309L24.5317 13.6373H23.2499C22.5577 13.6373 22.2892 14.0745 22.2892 14.4772C22.2892 15.375 23.0699 15.3323 23.6992 15.348C23.8049 15.348 23.8792 15.3593 23.9219 15.4058C23.9692 15.438 23.9999 15.5115 23.9999 15.5858C23.9994 15.6206 23.991 15.6548 23.9754 15.686C23.9598 15.7171 23.9374 15.7444 23.9099 15.7657C23.8627 15.8197 23.7727 15.8355 23.6407 15.8355H22.3507V16.4408H23.6369C24.0577 16.4408 24.3712 16.3237 24.5392 16.0815H24.5662C24.6562 15.9442 24.7034 15.7808 24.7034 15.5588C24.7034 15.3158 24.6562 15.168 24.5662 15.0308ZM19.3012 14.2073V13.6252H17.0662V16.4573H19.3012V15.8715H17.7299V15.3053H19.2622V14.7195H17.7299V14.2118L19.3012 14.2073ZM14.2154 8.78475H14.8987V11.6017H14.2154V8.78475ZM13.8284 9.543L13.8202 9.55125C13.8202 9.234 13.6912 9.051 13.4804 8.9265C13.2652 8.80125 13.0124 8.78925 12.6727 8.78925H11.1337V11.6093H11.8087V10.5743H12.5279C12.7657 10.5743 12.9187 10.605 13.0162 10.695C13.1384 10.8323 13.1219 11.0738 13.1219 11.2418V11.598H13.7977V11.0468C13.7977 10.797 13.7819 10.6718 13.6874 10.527C13.5995 10.4228 13.4868 10.3423 13.3597 10.293C13.5041 10.2291 13.6263 10.1237 13.7106 9.99012C13.7949 9.85654 13.8375 9.70088 13.8329 9.543H13.8284ZM12.9734 9.93825H12.9614C12.8677 9.99225 12.7657 9.996 12.6292 9.996H11.8049V9.37125H12.6292C12.7499 9.37125 12.8669 9.375 12.9569 9.42225C13.0469 9.46125 13.1092 9.55125 13.1092 9.672C13.1092 9.79275 13.0619 9.891 12.9734 9.93825ZM16.6252 9.37125H17.2544V8.7735H16.6094C16.1482 8.7735 15.8084 8.87925 15.5902 9.10275C15.3052 9.40275 15.2302 9.7935 15.2302 10.2157C15.2302 10.728 15.3509 11.0475 15.5902 11.286C15.8204 11.5238 16.2344 11.5988 16.5584 11.5988H17.3407L17.5949 10.9695H18.9847L19.2464 11.5988H20.6054V9.489L21.8797 11.5988H22.8329V8.7855H22.1452V10.7505L20.9662 8.78925H19.9462V11.3985L18.8129 8.74275H17.8087L16.8674 10.9657H16.5667C16.3919 10.9657 16.2037 10.935 16.0987 10.8285C15.9734 10.6807 15.9149 10.4692 15.9149 10.1685C15.9149 9.8835 15.9929 9.65625 16.1062 9.53925C16.2389 9.402 16.3799 9.37125 16.6222 9.37125H16.6252ZM18.2932 9.26625L18.7544 10.383V10.3868H17.8244L18.2932 9.26625ZM3.08242 10.9688L3.33667 11.598H4.70392V9.39525L5.67667 11.598H6.25867L7.23067 9.39525L7.24642 11.598H7.93717V8.78925H6.82042L6.01567 10.6912L5.13742 8.7855H4.04767V11.4495L2.90692 8.7855H1.91092L0.716172 11.5988H1.43392L1.69192 10.974H3.08317L3.08242 10.9688ZM2.39467 9.26625L2.85592 10.383L2.85217 10.3868H1.93792L2.39467 9.26625ZM12.5587 13.6207H10.4189L9.56692 14.5425L8.74267 13.6207H6.05167V16.4408H8.70367L9.55867 15.5077L10.3837 16.4377H11.6834V15.4995H12.5234C13.1212 15.4995 13.6912 15.3352 13.6912 14.5545L13.6874 14.5507C13.6874 13.77 13.0904 13.6207 12.5587 13.6207ZM8.37517 15.852H6.72292V15.2933H8.19067V14.7195H6.72292V14.2118H8.40217L9.13717 15.0315L8.37142 15.8558L8.37517 15.852ZM11.0152 16.1842L9.98392 15.0353L11.0152 13.9305V16.1842ZM12.5662 14.9257H11.6834V14.2065H12.5662C12.8084 14.2065 12.9884 14.3047 12.9884 14.5507C12.9884 14.7967 12.8407 14.9257 12.5662 14.9257ZM10.6724 9.37125V8.7855H8.43367V11.6025H10.6724V11.0205H9.10117V10.4572H10.6289V9.879H9.10117V9.37125H10.6724Z" fill="white"/>
</svg>
