<svg width="27" height="22" viewBox="0 0 27 22" fill="none" xmlns="http://www.w3.org/2000/svg">
<path d="M8.73281 11.1031C8.73281 11.675 8.27812 12.1109 7.70156 12.1109C7.27031 12.1109 6.95156 11.8672 6.95156 11.4078C6.95156 10.8359 7.39687 10.3766 7.96875 10.3766C8.40469 10.3766 8.73281 10.6438 8.73281 11.1031ZM3.77344 8.82969H3.55313C3.48281 8.82969 3.4125 8.87656 3.40312 8.95625L3.20156 10.2078L3.58594 10.1938C4.10156 10.1938 4.5 10.1234 4.59375 9.52813C4.70156 8.9 4.30312 8.82969 3.77344 8.82969ZM17.0859 8.82969H16.875C16.7906 8.82969 16.7344 8.87656 16.725 8.95625L16.5281 10.2078L16.9031 10.1938C17.5125 10.1938 17.9344 10.0531 17.9344 9.35C17.9297 8.85313 17.4844 8.82969 17.0859 8.82969ZM27 2.75V19.25C27 20.4922 25.9922 21.5 24.75 21.5H2.25C1.00781 21.5 0 20.4922 0 19.25V2.75C0 1.50781 1.00781 0.5 2.25 0.5H24.75C25.9922 0.5 27 1.50781 27 2.75ZM6.01406 9.09687C6.01406 8.1125 5.25469 7.78437 4.3875 7.78437H2.5125C2.39531 7.78437 2.27813 7.87813 2.26875 8.00469L1.5 12.7906C1.48594 12.8844 1.55625 12.9781 1.65 12.9781H2.54063C2.66719 12.9781 2.78437 12.8422 2.79844 12.7109L3.00937 11.4641C3.05625 11.1266 3.62812 11.2438 3.85312 11.2438C5.19375 11.2438 6.01406 10.4469 6.01406 9.09687ZM9.96094 9.50937H9.07031C8.89219 9.50937 8.88281 9.76719 8.87344 9.89375C8.60156 9.49531 8.20781 9.425 7.7625 9.425C6.61406 9.425 5.7375 10.4328 5.7375 11.5438C5.7375 12.4578 6.30938 13.0531 7.22344 13.0531C7.64531 13.0531 8.17031 12.8234 8.46563 12.4953C8.44219 12.5656 8.41875 12.7156 8.41875 12.7859C8.41875 12.8938 8.46562 12.9734 8.56875 12.9734H9.375C9.50156 12.9734 9.60938 12.8375 9.63281 12.7062L10.1109 9.69219C10.125 9.60313 10.0547 9.50937 9.96094 9.50937ZM11.8594 14.0984L14.8453 9.75781C14.8688 9.73438 14.8688 9.71094 14.8688 9.67813C14.8688 9.59844 14.7984 9.51406 14.7188 9.51406H13.8187C13.7391 9.51406 13.6547 9.56094 13.6078 9.63125L12.3656 11.4594L11.85 9.70156C11.8125 9.59844 11.7094 9.51406 11.5922 9.51406H10.7156C10.6359 9.51406 10.5656 9.59844 10.5656 9.67813C10.5656 9.73438 11.4797 12.3406 11.5594 12.5891C11.4328 12.7672 10.5984 13.9297 10.5984 14.0703C10.5984 14.1547 10.6687 14.2203 10.7484 14.2203H11.6484C11.7328 14.2156 11.8125 14.1688 11.8594 14.0984ZM19.3266 9.09687C19.3266 8.1125 18.5672 7.78437 17.7 7.78437H15.8391C15.7125 7.78437 15.5953 7.87813 15.5812 8.00469L14.8219 12.7859C14.8125 12.8797 14.8828 12.9734 14.9719 12.9734H15.9328C16.0266 12.9734 16.0969 12.9031 16.1203 12.8234L16.3312 11.4641C16.3781 11.1266 16.95 11.2438 17.175 11.2438C18.5063 11.2438 19.3266 10.4469 19.3266 9.09687ZM23.2734 9.50937H22.3828C22.2047 9.50937 22.1953 9.76719 22.1813 9.89375C21.9234 9.49531 21.525 9.425 21.0703 9.425C19.9219 9.425 19.0453 10.4328 19.0453 11.5438C19.0453 12.4578 19.6172 13.0531 20.5312 13.0531C20.9672 13.0531 21.4922 12.8234 21.7734 12.4953C21.7594 12.5656 21.7266 12.7156 21.7266 12.7859C21.7266 12.8938 21.7734 12.9734 21.8766 12.9734H22.6875C22.8141 12.9734 22.9219 12.8375 22.9453 12.7062L23.4234 9.69219C23.4375 9.60313 23.3672 9.50937 23.2734 9.50937ZM25.5 7.94844C25.5 7.85469 25.4297 7.78437 25.35 7.78437H24.4828C24.4125 7.78437 24.3422 7.84063 24.3328 7.91094L23.5734 12.7859L23.5594 12.8094C23.5594 12.8938 23.6297 12.9734 23.7234 12.9734H24.4969C24.6141 12.9734 24.7312 12.8375 24.7406 12.7062L25.5 7.9625V7.94844ZM21.2812 10.3766C20.7094 10.3766 20.2641 10.8313 20.2641 11.4078C20.2641 11.8625 20.5922 12.1109 21.0234 12.1109C21.5859 12.1109 22.0406 11.6797 22.0406 11.1031C22.0453 10.6438 21.7172 10.3766 21.2812 10.3766Z" fill="white"/>
</svg>
