<svg width="92" height="24" viewBox="0 0 92 24" fill="none" xmlns="http://www.w3.org/2000/svg">
<g clip-path="url(#clip0_2047_24612)">
<path d="M17.7856 23.9733C24.3132 24.005 30.2717 18.6611 30.2717 12.1603C30.2719 5.05185 24.3132 0.138477 17.7856 0.140626H12.168C5.56207 0.138297 0.125 5.05292 0.125 12.1601C0.125 18.6625 5.56207 24.0049 12.168 23.9732H17.7856" fill="white"/>
<path d="M14.6741 18.4897V5.5813C17.274 6.57658 19.1198 9.0887 19.1243 12.0351C19.1198 14.982 17.2742 17.4925 14.6739 18.4897M5.26718 12.0351C5.27291 9.09049 7.11589 6.57981 9.71434 5.58166V18.487C7.11589 17.4898 5.27291 14.9805 5.26736 12.0353M12.1946 1.125C6.15858 1.12679 1.26724 6.00954 1.26562 12.0351C1.26724 18.06 6.15858 22.9417 12.1946 22.9435C18.2329 22.9417 23.125 18.06 23.1259 12.0351C23.125 6.00954 18.2327 1.12697 12.1946 1.125Z" fill="#300708"/>
<path d="M34.0982 5.26953C34.0982 4.14242 33.5086 4.21639 32.9438 4.20439V3.8786C33.4333 3.90242 33.9354 3.90242 34.4259 3.90242C34.953 3.90242 35.6691 3.8786 36.599 3.8786C39.851 3.8786 41.6214 6.0463 41.6214 8.26612C41.6214 9.50714 40.8937 12.6279 36.4477 12.6279C35.8077 12.6279 35.2165 12.6031 34.6267 12.6031C34.062 12.6031 33.5086 12.615 32.9438 12.6279V12.3019C33.6968 12.2263 34.062 12.2014 34.0982 11.349V5.26953ZM35.329 11.1486C35.329 12.1136 36.0207 12.2263 36.6355 12.2263C39.3488 12.2263 40.2398 10.1833 40.2398 8.31556C40.2398 5.97233 38.7327 4.28033 36.309 4.28033C35.7932 4.28033 35.5563 4.31705 35.329 4.33048V11.1486ZM42.062 12.3021H42.3003C42.6515 12.3021 42.9029 12.3021 42.9029 11.8874V8.49144C42.9029 7.94033 42.7149 7.86368 42.2496 7.61454V7.41359C42.8399 7.23717 43.5438 7.00021 43.5934 6.96278C43.6817 6.91263 43.7567 6.8992 43.8196 6.8992C43.8817 6.8992 43.9077 6.9746 43.9077 7.07562V11.8874C43.9077 12.3021 44.1841 12.3021 44.536 12.3021H44.7492V12.628C44.3216 12.628 43.8817 12.603 43.4309 12.603C42.9785 12.603 42.5261 12.6153 42.062 12.628V12.3021ZM43.4057 4.96953C43.0785 4.96953 42.7903 4.66863 42.7903 4.34266C42.7903 4.02887 43.0923 3.7398 43.4057 3.7398C43.7313 3.7398 44.0209 4.00415 44.0209 4.34266C44.0209 4.68153 43.7442 4.96953 43.4057 4.96953ZM45.9423 8.56612C45.9423 8.10278 45.8034 7.97777 45.2145 7.73974V7.50153C45.7539 7.32636 46.2683 7.16266 46.8719 6.8992C46.9091 6.8992 46.946 6.92481 46.946 7.02457V7.8395C47.663 7.32636 48.2786 6.8992 49.1211 6.8992C50.1878 6.8992 50.5643 7.67651 50.5643 8.65442V11.8873C50.5643 12.3019 50.8401 12.3019 51.1923 12.3019H51.4185V12.6279C50.9779 12.6279 50.5383 12.6028 50.0874 12.6028C49.6348 12.6028 49.1823 12.6151 48.7305 12.6279V12.3019H48.9561C49.3086 12.3019 49.5586 12.3019 49.5586 11.8873V8.64189C49.5586 7.92672 49.1211 7.57657 48.4041 7.57657C48.0024 7.57657 47.3617 7.902 46.946 8.178V11.8873C46.946 12.3019 47.224 12.3019 47.5758 12.3019H47.8014V12.6279C47.3619 12.6279 46.9217 12.6028 46.4696 12.6028C46.0181 12.6028 45.5652 12.6151 45.1136 12.6279V12.3019H45.3402C45.6918 12.3019 45.9423 12.3019 45.9423 11.8873V8.56612ZM52.3733 9.16881C52.3475 9.28165 52.3475 9.46917 52.3733 9.89562C52.4472 11.0861 53.2154 12.0633 54.2186 12.0633C54.9105 12.0633 55.4512 11.6872 55.9147 11.224L56.0902 11.3996C55.5124 12.1643 54.7964 12.8159 53.7676 12.8159C51.7699 12.8159 51.3685 10.8852 51.3685 10.0835C51.3685 7.62654 53.0256 6.8992 53.9041 6.8992C54.9225 6.8992 56.0159 7.53824 56.027 8.86684C56.027 8.94314 56.027 9.01729 56.0159 9.09341L55.9018 9.16863H52.3734L52.3733 9.16881ZM54.5967 8.76726C54.9105 8.76726 54.9468 8.60409 54.9468 8.45383C54.9468 7.81478 54.5582 7.30093 53.8543 7.30093C53.0886 7.30093 52.5612 7.86368 52.4107 8.76726H54.5967ZM56.3166 12.3021H56.6558C57.0062 12.3021 57.2576 12.3021 57.2576 11.8874V8.36624C57.2576 7.97777 56.7936 7.90218 56.6048 7.80206V7.61454C57.5216 7.22553 58.0242 6.8992 58.1388 6.8992C58.2126 6.8992 58.2499 6.93681 58.2499 7.0629V8.19072H58.2767C58.5894 7.70177 59.118 6.89938 59.8837 6.89938C60.1978 6.89938 60.5992 7.11198 60.5992 7.5635C60.5992 7.90201 60.3611 8.2038 60.0097 8.2038C59.6188 8.2038 59.6188 7.90218 59.1798 7.90218C58.9661 7.90218 58.2631 8.19054 58.2631 8.94314V11.8876C58.2631 12.3021 58.5137 12.3021 58.8656 12.3021H59.5686V12.628C58.8776 12.6153 58.352 12.603 57.8112 12.603C57.2965 12.603 56.7689 12.6153 56.3166 12.628V12.3021ZM61.1517 10.8853C61.3152 11.7123 61.8173 12.4147 62.7346 12.4147C63.4743 12.4147 63.7505 11.9634 63.7505 11.5251C63.7505 10.0457 61.0138 10.5216 61.0138 8.50415C61.0138 7.80171 61.5796 6.89938 62.9603 6.89938C63.3617 6.89938 63.9017 7.01257 64.3912 7.2635L64.4798 8.54087H64.1908C64.0654 7.75192 63.626 7.30075 62.8219 7.30075C62.3189 7.30075 61.8423 7.58893 61.8423 8.12768C61.8423 9.59526 64.756 9.1432 64.756 11.1108C64.756 11.9379 64.0903 12.8161 62.5955 12.8161C62.0933 12.8161 61.5029 12.6404 61.0638 12.3898L60.9253 10.9484L61.1517 10.8853ZM76.0964 6.14696H75.7831C75.544 4.68153 74.5014 4.09174 73.0957 4.09174C71.6506 4.09174 69.5528 5.05657 69.5528 8.06463C69.5528 10.5979 71.3626 12.4147 73.2961 12.4147C74.5389 12.4147 75.5696 11.5627 75.8211 10.2458L76.1093 10.321L75.8211 12.1509C75.2934 12.4779 73.8742 12.8159 73.0446 12.8159C70.1066 12.8159 68.2482 10.9231 68.2482 8.10278C68.2482 5.53299 70.5461 3.69 73.0075 3.69C74.0243 3.69 75.0044 4.01687 75.971 4.35556L76.0964 6.14696ZM76.5495 12.3021H76.7868C77.1397 12.3021 77.3909 12.3021 77.3909 11.8874V4.9072C77.3909 4.09174 77.2025 4.06666 76.7254 3.92893V3.72833C77.2272 3.56571 77.7549 3.34003 78.0185 3.18905C78.1557 3.11436 78.2569 3.05078 78.294 3.05078C78.3705 3.05078 78.3957 3.12672 78.3957 3.2272V11.8873C78.3957 12.3019 78.6717 12.3019 79.0238 12.3019H79.2359V12.6279C78.8103 12.6279 78.3705 12.6028 77.9182 12.6028C77.4665 12.6028 77.0143 12.6151 76.5495 12.6279V12.3021ZM84.6132 11.9379C84.6132 12.1643 84.7507 12.1762 84.964 12.1762C85.115 12.1762 85.3025 12.1643 85.4666 12.1643V12.4282C84.9257 12.4779 83.8964 12.741 83.6576 12.8161L83.5942 12.7785V11.7635C82.842 12.3775 82.2633 12.8161 81.3706 12.8161C80.6931 12.8161 79.9897 12.3775 79.9897 11.325V8.1155C79.9897 7.78953 79.94 7.47609 79.2373 7.41359V7.17538C79.6899 7.16284 80.6931 7.08798 80.857 7.08798C80.9961 7.08798 80.9961 7.1752 80.9961 7.4512V10.6844C80.9961 11.061 80.9961 12.1387 82.088 12.1387C82.5149 12.1387 83.08 11.8129 83.6068 11.3752V8.00195C83.6068 7.75191 83.0044 7.61454 82.5533 7.48899V7.26332C83.6823 7.18774 84.3868 7.0878 84.5116 7.0878C84.6131 7.0878 84.6132 7.1752 84.6132 7.31383V11.9379ZM87.112 7.80206C87.6135 7.3758 88.2921 6.89938 88.9835 6.89938C90.4403 6.89938 91.3183 8.16618 91.3183 9.53186C91.3183 11.1737 90.1134 12.8161 88.3163 12.8161C87.3878 12.8161 86.8982 12.5148 86.5711 12.3775L86.195 12.6651L85.9321 12.5277C86.0431 11.7882 86.1074 11.061 86.1074 10.2966V4.9072C86.1074 4.09174 85.9181 4.06666 85.4412 3.92893V3.72833C85.9446 3.56571 86.4708 3.34003 86.735 3.18905C86.8729 3.11436 86.9729 3.05078 87.0119 3.05078C87.0871 3.05078 87.112 3.12672 87.112 3.2272V7.80206ZM87.112 11.211C87.112 11.6874 87.5637 12.4905 88.4052 12.4905C89.7493 12.4905 90.314 11.1737 90.314 10.0575C90.314 8.70421 89.2853 7.57675 88.3052 7.57675C87.8395 7.57675 87.4509 7.87765 87.112 8.16618V11.211ZM32.9297 19.9156H33.0259C33.2714 19.9156 33.5309 19.8825 33.5309 19.5273V15.9544C33.5309 15.5987 33.2714 15.5648 33.0259 15.5648H32.9297V15.3603C33.1962 15.3603 33.6063 15.3871 33.942 15.3871C34.2834 15.3871 34.6928 15.3603 35.0139 15.3603V15.5648H34.9181C34.6731 15.5648 34.4129 15.5987 34.4129 15.9544V19.5273C34.4129 19.8825 34.6731 19.9156 34.9179 19.9156H35.0139V20.1212C34.6862 20.1212 34.2751 20.0944 33.9348 20.0944C33.5995 20.0944 33.1962 20.1212 32.9297 20.1212V19.9156ZM39.7088 18.7767L39.7226 18.7634V16.2062C39.7226 15.6467 39.3327 15.565 39.128 15.565H38.9775V15.3601C39.2988 15.3601 39.6133 15.3871 39.9341 15.3871C40.2142 15.3871 40.4954 15.3601 40.7748 15.3601V15.5646H40.6729C40.3851 15.5646 40.064 15.6194 40.064 16.4308V19.5347C40.064 19.7731 40.0709 20.0114 40.1044 20.2228H39.8447L36.326 16.3076V19.1181C36.326 19.7114 36.4412 19.9154 36.968 19.9154H37.0838V20.1211C36.7903 20.1211 36.4969 20.0942 36.2026 20.0942C35.896 20.0942 35.5812 20.1211 35.2736 20.1211V19.9154H35.3693C35.8407 19.9154 35.9838 19.5956 35.9838 19.0505V16.1777C35.9838 15.7964 35.6687 15.5646 35.3625 15.5646H35.2736V15.3601C35.533 15.3601 35.7995 15.3871 36.0585 15.3871C36.2639 15.3871 36.4625 15.3601 36.6674 15.3601L39.709 18.7765L39.7088 18.7767ZM41.7982 15.7011C41.2849 15.7011 41.2657 15.824 41.1629 16.3212H40.9582C40.9847 16.1306 41.0195 15.9399 41.0403 15.7416C41.0678 15.5503 41.0811 15.3601 41.0811 15.1625H41.245C41.3001 15.3674 41.4706 15.3603 41.6562 15.3603H45.1813C45.3662 15.3603 45.5365 15.3535 45.5508 15.1486L45.7138 15.176C45.6873 15.3603 45.6597 15.5439 45.6389 15.7285C45.6264 15.9128 45.6264 16.0971 45.6264 16.2807L45.421 16.3565C45.407 16.1043 45.3726 15.7011 44.9152 15.7011H43.7945V19.3298C43.7945 19.8556 44.034 19.9156 44.3614 19.9156H44.4911V20.1212C44.2249 20.1212 43.7462 20.0944 43.3777 20.0944C42.9676 20.0944 42.489 20.1212 42.2222 20.1212V19.9156H42.3518C42.729 19.9156 42.9192 19.8821 42.9192 19.3439V15.7011H41.7982ZM45.9323 19.9156H46.0283C46.2742 19.9156 46.5341 19.8825 46.5341 19.5273V15.9544C46.5341 15.5987 46.2742 15.5648 46.0283 15.5648H45.9323V15.3603C46.3484 15.3603 47.0607 15.3871 47.6335 15.3871C48.2084 15.3871 48.918 15.3603 49.3824 15.3603C49.3717 15.7082 49.3766 16.0564 49.3973 16.4039L49.1913 16.4585C49.1583 16.0156 49.0767 15.661 48.3585 15.661H47.4097V17.4472H48.2218C48.6316 17.4472 48.7211 17.2162 48.7616 16.847H48.9662C48.9527 17.1128 48.9459 17.3788 48.9457 17.6449C48.9457 17.9048 48.9529 18.1636 48.9662 18.4228L48.7616 18.4633C48.7211 18.0545 48.7004 17.7884 48.2283 17.7884H47.4097V19.3774C47.4097 19.8207 47.8043 19.8207 48.2419 19.8207C49.0625 19.8207 49.424 19.7657 49.6294 18.9893L49.8205 19.0362C49.7313 19.3985 49.6496 19.7591 49.5889 20.1212C49.1508 20.1212 48.3651 20.0944 47.7508 20.0944C47.135 20.0944 46.3217 20.1212 45.9323 20.1212V19.9156ZM50.7429 16.0828C50.7429 15.5852 50.4696 15.5648 50.2571 15.5648H50.1341V15.3601C50.3528 15.3601 50.7764 15.3875 51.1935 15.3875C51.6029 15.3875 51.9314 15.3601 52.2934 15.3601C53.154 15.3601 53.9202 15.5919 53.9202 16.5613C53.9202 17.1741 53.5104 17.5493 52.9704 17.7619L54.1387 19.5064C54.3303 19.7949 54.4663 19.8759 54.8016 19.9154V20.1214C54.5759 20.1214 54.357 20.0945 54.1319 20.0945C53.9202 20.0945 53.7008 20.1214 53.49 20.1214C52.9638 19.4326 52.5115 18.6961 52.0679 17.9105H51.6178V19.3708C51.6178 19.8966 51.8632 19.9154 52.177 19.9154H52.3006V20.1214C51.9101 20.1214 51.5152 20.0945 51.1253 20.0945C50.7968 20.0945 50.4757 20.1214 50.1341 20.1214V19.9154H50.2571C50.5109 19.9154 50.7429 19.8012 50.7429 19.5483V16.083V16.0828ZM51.6178 17.6646H51.9517C52.6357 17.6646 53.0037 17.4062 53.0037 16.6009C53.0037 15.9948 52.6145 15.606 52.0057 15.606C51.8005 15.606 51.7129 15.627 51.6178 15.6329V17.6646ZM59.4411 18.7769L59.4534 18.7634V16.2062C59.4534 15.6467 59.0648 15.565 58.8599 15.565H58.71V15.3601C59.0311 15.3601 59.3444 15.3871 59.6664 15.3871C59.9471 15.3871 60.2257 15.3601 60.5082 15.3601V15.5646H60.4049C60.1183 15.5646 59.7968 15.6194 59.7968 16.4308V19.5347C59.7968 19.7731 59.8032 20.0114 59.8371 20.2228H59.5779L56.0589 16.3076V19.1181C56.0589 19.7114 56.1746 19.9154 56.7008 19.9154H56.8169V20.1211C56.5235 20.1211 56.2294 20.0942 55.936 20.0942C55.6274 20.0942 55.3133 20.1211 55.0061 20.1211V19.9154H55.101C55.5732 19.9154 55.7166 19.5956 55.7166 19.0505V16.1777C55.7166 15.7964 55.4023 15.5646 55.0951 15.5646H55.0061V15.3601C55.2649 15.3601 55.5327 15.3871 55.7922 15.3871C55.9955 15.3871 56.1945 15.3601 56.4001 15.3601L59.4413 18.7765L59.4411 18.7769ZM61.607 19.1458C61.5375 19.3774 61.4553 19.5558 61.4553 19.6774C61.4553 19.8825 61.7426 19.9156 61.9675 19.9156H62.0438V20.1212C61.768 20.105 61.4918 20.0961 61.2155 20.0947C60.9696 20.0962 60.7238 20.105 60.4785 20.1212V19.9156H60.5198C60.7862 19.9156 61.0124 19.7591 61.1132 19.472L62.2079 16.3428C62.2957 16.0903 62.42 15.7491 62.461 15.4959C62.6786 15.4219 62.9524 15.2858 63.0825 15.2036C63.1032 15.1964 63.1152 15.1892 63.1369 15.1892C63.1573 15.1892 63.1699 15.1892 63.1853 15.2104C63.2057 15.2648 63.2249 15.3262 63.2471 15.3805L64.5044 18.9479C64.5859 19.1863 64.6674 19.4385 64.7557 19.6441C64.8386 19.835 64.982 19.9156 65.2079 19.9156H65.2487V20.1212C64.9347 20.1047 64.6204 20.0959 64.3059 20.0947C63.9714 20.0947 63.6286 20.1064 63.28 20.1212V19.9156H63.356C63.5123 19.9156 63.7797 19.8891 63.7797 19.7182C63.7797 19.6301 63.7181 19.446 63.6418 19.2271L63.376 18.4362H61.825L61.607 19.1458ZM62.6043 16.1242H62.5903L61.9546 18.0545H63.2317L62.6043 16.1242ZM65.5494 15.7011C65.0367 15.7011 65.0163 15.824 64.9136 16.3212H64.7082C64.7351 16.1306 64.7696 15.9399 64.7909 15.7416C64.8182 15.5503 64.8309 15.3601 64.8309 15.1625H64.9957C65.0499 15.3674 65.2215 15.3603 65.4053 15.3603H68.932C69.1158 15.3603 69.2865 15.3535 69.3004 15.1486L69.4641 15.176C69.4378 15.3603 69.4104 15.5439 69.39 15.7285C69.3748 15.9128 69.3748 16.0971 69.3748 16.2807L69.1704 16.3565C69.1579 16.1043 69.1235 15.7011 68.6653 15.7011H67.5445V19.3298C67.5445 19.8556 67.7843 19.9156 68.1115 19.9156H68.2416V20.1212C67.9751 20.1212 67.497 20.0944 67.1275 20.0944C66.7185 20.0944 66.239 20.1212 65.9727 20.1212V19.9156H66.1023C66.479 19.9156 66.6701 19.8821 66.6701 19.3439V15.7011H65.5494ZM69.7161 19.9156H69.8118C70.0586 19.9156 70.3169 19.8825 70.3169 19.5273V15.9544C70.3169 15.5987 70.0586 15.5648 69.8118 15.5648H69.7161V15.3603C69.9834 15.3603 70.3924 15.3871 70.7268 15.3871C71.0694 15.3871 71.4794 15.3603 71.8011 15.3603V15.5648H71.7054C71.459 15.5648 71.1986 15.5987 71.1986 15.9544V19.5273C71.1986 19.8825 71.459 19.9156 71.7054 19.9156H71.8011V20.1212C71.4726 20.1212 71.0625 20.0944 70.7211 20.0944C70.3858 20.0944 69.9832 20.1212 69.7161 20.1212V19.9156ZM74.5263 15.2584C75.9832 15.2584 77.1441 16.1591 77.1441 17.6118C77.1441 19.1806 76.0165 20.2233 74.5614 20.2233C73.1116 20.2233 72.0053 19.2415 72.0053 17.775C72.0053 16.3568 73.1051 15.2584 74.5263 15.2584ZM74.6295 19.9231C75.9556 19.9231 76.1863 18.7561 76.1863 17.7619C76.1863 16.7646 75.6481 15.5578 74.5131 15.5578C73.317 15.5578 72.962 16.6222 72.962 17.5351C72.962 18.7561 73.5223 19.9231 74.6295 19.9231ZM81.7489 18.7769L81.7631 18.7634V16.2062C81.7631 15.6467 81.3724 15.565 81.1674 15.565H81.0192V15.3601C81.3391 15.3601 81.654 15.3871 81.9739 15.3871C82.2554 15.3871 82.5354 15.3601 82.816 15.3601V15.5646H82.7127C82.4263 15.5646 82.1046 15.6194 82.1046 16.4308V19.5347C82.1046 19.7731 82.1111 20.0114 82.1458 20.2228H81.8865L78.3663 16.3076V19.1181C78.3663 19.7114 78.4828 19.9154 79.0083 19.9154H79.125V20.1211C78.8309 20.1211 78.5379 20.0942 78.2438 20.0942C77.9363 20.0942 77.6211 20.1211 77.3134 20.1211V19.9154H77.4099C77.882 19.9154 78.0243 19.5956 78.0243 19.0505V16.1777C78.0243 15.7964 77.7115 15.5646 77.4028 15.5646H77.3132V15.3601C77.5735 15.3601 77.8401 15.3871 78.0995 15.3871C78.3042 15.3871 78.5019 15.3601 78.7075 15.3601L81.7491 18.7765L81.7489 18.7769ZM83.9139 19.1458C83.8468 19.3774 83.764 19.5558 83.764 19.6774C83.764 19.8825 84.0518 19.9156 84.2759 19.9156H84.3524V20.1212C84.0768 20.105 83.8009 20.0961 83.5249 20.0947C83.2791 20.0961 83.0334 20.1049 82.7881 20.1212V19.9156H82.8268C83.0943 19.9156 83.3205 19.7591 83.4214 19.472L84.5164 16.3428C84.6049 16.0903 84.7285 15.7491 84.7683 15.4959C84.9873 15.4219 85.2603 15.2858 85.3914 15.2036C85.4109 15.1964 85.4245 15.1892 85.4451 15.1892C85.4657 15.1892 85.4788 15.1892 85.4926 15.2104C85.5132 15.2648 85.5343 15.3262 85.5549 15.3805L86.8115 18.9479C86.8935 19.1863 86.9752 19.4385 87.0649 19.6441C87.1469 19.835 87.2911 19.9156 87.5159 19.9156H87.5576V20.1212C87.2496 20.1064 86.9419 20.0947 86.6134 20.0947C86.2795 20.0947 85.9371 20.1064 85.5886 20.1212V19.9156H85.664C85.8201 19.9156 86.0884 19.8891 86.0884 19.7182C86.0884 19.6301 86.0263 19.446 85.9502 19.2271L85.6847 18.4362H84.1333L83.9139 19.1458ZM84.9126 16.1242H84.899L84.2625 18.0545H85.5414L84.9128 16.1242H84.9126ZM89.2795 19.4525C89.2795 19.7258 89.4694 19.8071 89.6881 19.835C89.9684 19.8556 90.2759 19.8556 90.5911 19.8211C90.8777 19.7867 91.1234 19.6233 91.2463 19.4525C91.3555 19.3022 91.4166 19.1116 91.4583 18.9613H91.6564C91.5814 19.35 91.4854 19.7328 91.403 20.1212C90.8032 20.1212 90.1998 20.0947 89.6 20.0947C88.9976 20.0947 88.3971 20.1212 87.7957 20.1212V19.9156H87.8899C88.137 19.9156 88.4041 19.8825 88.4041 19.4591V15.954C88.4041 15.5987 88.1368 15.5648 87.8899 15.5648H87.7957V15.3603C88.1571 15.3603 88.513 15.3873 88.8746 15.3873C89.2244 15.3873 89.5654 15.3603 89.9141 15.3603V15.5648H89.7423C89.4834 15.5648 89.2795 15.5725 89.2795 15.9332V19.4525Z" fill="white"/>
</g>
<defs>
<clipPath id="clip0_2047_24612">
<rect width="91.7015" height="24" fill="white"/>
</clipPath>
</defs>
</svg>
