<?xml version="1.0" encoding="UTF-8"?>
<svg id="Layer_2" data-name="Layer 2" xmlns="http://www.w3.org/2000/svg" width="231" height="110" viewBox="0 0 227.84 148.03">
  <defs>
    <style>
      .cls-1 {
        fill: #fff;
      }
    </style>
  </defs>
  <g id="Layer_1-2" data-name="Layer 1">
    <path class="cls-1" d="M71.2,125.21h3.53v-26.31h0c1.77,5.12,10.42,11.83,10.42,11.83,0,0,6.71,5.65,9.89,13.42h0l2.12,1.06v-38.32h-3.53v26.84h0c-1.94-5.12-9.54-11.13-9.54-11.13-5.83-5.12-9.71-12.19-10.6-15.54h0l-2.3-.71v38.85h0ZM109.7,86.89h4.95v38.32h-4.95v-38.32ZM107.4,75.58c0-2.83,2.12-4.95,4.94-4.95,2.47,0,4.77,2.12,4.77,4.95,0,2.65-2.3,4.94-4.77,4.94-2.83,0-4.94-2.3-4.94-4.94ZM149.61,95.72c-1.24.35-2.47-.18-3.71-1.24-1.77-1.59-2.47-3.18-4.77-4.59-2.47-1.24-6-1.41-8.12.18-1.94,1.41-1.94,4.59.18,6.36,4.06,3.18,8.48,4.94,13.6,7.59,9.36,4.94,10.95,13.6,4.41,18.01-5.47,3.71-12.36,4.06-18.54,1.77-4.77-1.94-8.48-5.83-9.01-10.6,3.18,0,4.24,1.41,5.47,3.36,1.94,2.65,3.18,3.71,6.01,4.94,4.06,1.59,8.65,1.06,11.3-.53,3.88-2.47,3.36-6.53.53-9.18-5.83-5.47-13.07-7.06-17.13-11.13-3.53-3.53-4.77-7.42-1.06-11.48,3.18-3.36,11.65-4.41,16.6-.18,2.12,1.94,3.71,4.24,4.24,6.71h0ZM163.91,124.15h5.12v-10.42h13.95v10.95h5.3v-37.79h-5.3v23.84h-13.95v-23.84h-5.12v37.26h0ZM.2,89.36c-.71-1.41.35-5.12,4.59-4.77h20.84c2.65.18,4.24-1.77,7.59-1.41-4.77,3.89-5.3,5.83-6.18,9.54h0l-3.36,27.37h0c-.88,11.13,2.29,20.31,10.6,27.9-5.12.71-16.25-7.42-16.6-22.25-.35-7.42,1.77-31.08,1.77-31.08.53-3.89,3-6.71,3-6.71H2.67c-1.23.18-1.94.18-2.47,1.41h0ZM147.84,14.3c1.24-5.83-2.47-11.13-8.3-11.13h-15.89c-4.06.18-9.54-3.18-9.54-3.18h0v26.67h0c0,27.02,14.83,38.5,21.72,39.56,1.24.53,2.12.18.53-1.06-9.36-6-14.84-20.31-15.36-32.49h0V8.3h0c1.94,1.24,5.65,1.41,5.65,1.41h14.13c3.71,0,5.65,1.24,7.06,4.59h0ZM76.67,14.3c-1.24-5.83,2.65-11.13,8.3-11.13h15.9c4.24.18,9.54-3.18,9.54-3.18h0v26.67h0c0,27.02-14.84,38.5-21.72,39.56-1.24.53-2.12.18-.53-1.06,9.36-6,14.83-20.31,15.36-32.49h0V8.3h0c-1.94,1.24-5.65,1.41-5.65,1.41h-13.95c-3.71,0-5.65,1.24-7.24,4.59M58.13,87.42c-6,9.54-10.6,12.01-17.31,18.72-5.65,5.65-9.89,12.01-7.77,19.07h6.54c-1.41-3.53-.35-7.42.53-8.83h16.07v8.83h4.06v-39.03s-1.24-.18-2.12,1.24ZM56.18,113.73h-14.83c2.29-6.18,11.12-9.89,14.83-16.78v16.78ZM211.24,82.12h0,0ZM224.49,116.55c3.18-4.42,5.12-11.83,1.06-19.07-3.71-6.89-14.13-13.24-14.31-15.36-5.12,4.06-9.36,7.59-11.65,12.89-2.47,5.3-3.18,12.89,0,19.43,3.53,7.24,7.59,11.13,12.36,15.89,3.36,3.71,9.71,11.13,7.59,17.66,1.59,0,3.71-3.88,4.06-5.3.88-4.59.35-6.89-1.59-10.24-1.24-2.3-3.88-4.59-5.83-6.89,2.83-2.3,5.83-5.65,8.3-9.01ZM213.36,122.91c-4.06-3.35-6.53-6.18-9.01-11.65-2.47-4.95-2.65-10.77-1.59-14.83,1.24-4.42,4.24-7.59,7.07-9.89,3.18,2.3,6.53,5.12,9.01,9.18,4.06,6.89,4.06,11.83,1.41,18.54-1.59,3.88-3.36,6.18-6.89,8.65Z"/>
  </g>
</svg>