<?xml version="1.0" encoding="UTF-8"?>
<svg id="Layer_2" data-name="Layer 2" xmlns="http://www.w3.org/2000/svg" viewBox="0 0 200 200">
  <defs>
    <style>
      .cls-1, .cls-2 {
        fill: #fff;
      }

      .cls-2 {
        fill-rule: evenodd;
      }

      .cls-3 {
        fill: none;
        stroke: #fff;
        stroke-width: 6.06px;
      }
    </style>
  </defs>
  <g id="Layer_1-2" data-name="Layer 1">
    <g>
      <g>
        <g shape-rendering="crispEdges">
          <rect class="cls-1" x="66.67" y="0" width="6.06" height="6.06"/>
          <rect class="cls-1" x="72.73" y="0" width="6.06" height="6.06"/>
          <rect class="cls-1" x="84.85" y="0" width="6.06" height="6.06"/>
          <rect class="cls-1" x="103.03" y="0" width="6.06" height="6.06"/>
          <rect class="cls-1" x="115.15" y="0" width="6.06" height="6.06"/>
          <rect class="cls-1" x="133.33" y="0" width="6.06" height="6.06"/>
          <rect class="cls-1" x="145.45" y="0" width="6.06" height="6.06"/>
          <rect class="cls-1" x="54.55" y="6.07" width="6.06" height="6.06"/>
          <rect class="cls-1" x="60.61" y="6.07" width="6.06" height="6.06"/>
          <rect class="cls-1" x="72.73" y="6.07" width="6.06" height="6.06"/>
          <rect class="cls-1" x="84.85" y="6.07" width="6.06" height="6.06"/>
          <rect class="cls-1" x="96.97" y="6.07" width="6.06" height="6.06"/>
          <rect class="cls-1" x="103.03" y="6.07" width="6.06" height="6.06"/>
          <rect class="cls-1" x="109.09" y="6.07" width="6.06" height="6.06"/>
          <rect class="cls-1" x="121.21" y="6.07" width="6.06" height="6.06"/>
          <rect class="cls-1" x="127.27" y="6.07" width="6.06" height="6.06"/>
          <rect class="cls-1" x="133.33" y="6.07" width="6.06" height="6.06"/>
          <rect class="cls-1" x="145.45" y="6.07" width="6.06" height="6.06"/>
          <rect class="cls-1" x="48.49" y="12.13" width="6.06" height="6.06"/>
          <rect class="cls-1" x="54.55" y="12.13" width="6.06" height="6.06"/>
          <rect class="cls-1" x="66.67" y="12.13" width="6.06" height="6.06"/>
          <rect class="cls-1" x="72.73" y="12.13" width="6.06" height="6.06"/>
          <rect class="cls-1" x="78.79" y="12.13" width="6.06" height="6.06"/>
          <rect class="cls-1" x="84.85" y="12.13" width="6.06" height="6.06"/>
          <rect class="cls-1" x="90.91" y="12.13" width="6.06" height="6.06"/>
          <rect class="cls-1" x="96.97" y="12.13" width="6.06" height="6.06"/>
          <rect class="cls-1" x="109.09" y="12.13" width="6.06" height="6.06"/>
          <rect class="cls-1" x="115.15" y="12.13" width="6.06" height="6.06"/>
          <rect class="cls-1" x="121.21" y="12.13" width="6.06" height="6.06"/>
          <rect class="cls-1" x="127.27" y="12.13" width="6.06" height="6.06"/>
          <rect class="cls-1" x="133.33" y="12.13" width="6.06" height="6.06"/>
          <rect class="cls-1" x="139.39" y="12.13" width="6.06" height="6.06"/>
          <rect class="cls-1" x="145.45" y="12.13" width="6.06" height="6.06"/>
          <rect class="cls-1" x="48.49" y="18.19" width="6.06" height="6.06"/>
          <rect class="cls-1" x="78.79" y="18.19" width="6.06" height="6.06"/>
          <rect class="cls-1" x="96.97" y="18.19" width="6.06" height="6.06"/>
          <rect class="cls-1" x="109.09" y="18.19" width="6.06" height="6.06"/>
          <rect class="cls-1" x="127.27" y="18.19" width="6.06" height="6.06"/>
          <rect class="cls-1" x="139.39" y="18.19" width="6.06" height="6.06"/>
          <rect class="cls-1" x="72.73" y="24.25" width="6.06" height="6.06"/>
          <rect class="cls-1" x="84.85" y="24.25" width="6.06" height="6.06"/>
          <rect class="cls-1" x="103.03" y="24.25" width="6.06" height="6.06"/>
          <rect class="cls-1" x="121.21" y="24.25" width="6.06" height="6.06"/>
          <rect class="cls-1" x="133.33" y="24.25" width="6.06" height="6.06"/>
          <rect class="cls-1" x="139.39" y="24.25" width="6.06" height="6.06"/>
          <rect class="cls-1" x="145.45" y="24.25" width="6.06" height="6.06"/>
          <rect class="cls-1" x="72.73" y="30.31" width="6.06" height="6.06"/>
          <rect class="cls-1" x="84.85" y="30.31" width="6.06" height="6.06"/>
          <rect class="cls-1" x="90.91" y="30.31" width="6.06" height="6.06"/>
          <rect class="cls-1" x="96.97" y="30.31" width="6.06" height="6.06"/>
          <rect class="cls-1" x="103.03" y="30.31" width="6.06" height="6.06"/>
          <rect class="cls-1" x="133.33" y="30.31" width="6.06" height="6.06"/>
          <rect class="cls-1" x="139.39" y="30.31" width="6.06" height="6.06"/>
          <rect class="cls-1" x="48.49" y="36.37" width="6.06" height="6.06"/>
          <rect class="cls-1" x="60.61" y="36.37" width="6.06" height="6.06"/>
          <rect class="cls-1" x="72.73" y="36.37" width="6.06" height="6.06"/>
          <rect class="cls-1" x="84.85" y="36.37" width="6.06" height="6.06"/>
          <rect class="cls-1" x="96.97" y="36.37" width="6.06" height="6.06"/>
          <rect class="cls-1" x="109.09" y="36.37" width="6.06" height="6.06"/>
          <rect class="cls-1" x="121.21" y="36.37" width="6.06" height="6.06"/>
          <rect class="cls-1" x="133.33" y="36.37" width="6.06" height="6.06"/>
          <rect class="cls-1" x="145.45" y="36.37" width="6.06" height="6.06"/>
          <rect class="cls-1" x="60.61" y="42.43" width="6.06" height="6.06"/>
          <rect class="cls-1" x="66.67" y="42.43" width="6.06" height="6.06"/>
          <rect class="cls-1" x="78.79" y="42.43" width="6.06" height="6.06"/>
          <rect class="cls-1" x="90.91" y="42.43" width="6.06" height="6.06"/>
          <rect class="cls-1" x="96.97" y="42.43" width="6.06" height="6.06"/>
          <rect class="cls-1" x="109.09" y="42.43" width="6.06" height="6.06"/>
          <rect class="cls-1" x="133.33" y="42.43" width="6.06" height="6.06"/>
          <rect class="cls-1" x="145.45" y="42.43" width="6.06" height="6.06"/>
          <rect class="cls-1" x="18.19" y="48.49" width="6.06" height="6.06"/>
          <rect class="cls-1" x="24.25" y="48.49" width="6.06" height="6.06"/>
          <rect class="cls-1" x="36.37" y="48.49" width="6.06" height="6.06"/>
          <rect class="cls-1" x="42.43" y="48.49" width="6.06" height="6.06"/>
          <rect class="cls-1" x="60.61" y="48.49" width="6.06" height="6.06"/>
          <rect class="cls-1" x="66.67" y="48.49" width="6.06" height="6.06"/>
          <rect class="cls-1" x="72.73" y="48.49" width="6.06" height="6.06"/>
          <rect class="cls-1" x="78.79" y="48.49" width="6.06" height="6.06"/>
          <rect class="cls-1" x="84.85" y="48.49" width="6.06" height="6.06"/>
          <rect class="cls-1" x="90.91" y="48.49" width="6.06" height="6.06"/>
          <rect class="cls-1" x="133.33" y="48.49" width="6.06" height="6.06"/>
          <rect class="cls-1" x="175.75" y="48.49" width="6.06" height="6.06"/>
          <rect class="cls-1" x="181.81" y="48.49" width="6.06" height="6.06"/>
          <rect class="cls-1" x="0" y="54.55" width="6.06" height="6.06"/>
          <rect class="cls-1" x="24.25" y="54.55" width="6.06" height="6.06"/>
          <rect class="cls-1" x="30.31" y="54.55" width="6.06" height="6.06"/>
          <rect class="cls-1" x="48.49" y="54.55" width="6.06" height="6.06"/>
          <rect class="cls-1" x="54.55" y="54.55" width="6.06" height="6.06"/>
          <rect class="cls-1" x="66.67" y="54.55" width="6.06" height="6.06"/>
          <rect class="cls-1" x="78.79" y="54.55" width="6.06" height="6.06"/>
          <rect class="cls-1" x="90.91" y="54.55" width="6.06" height="6.06"/>
          <rect class="cls-1" x="96.97" y="54.55" width="6.06" height="6.06"/>
          <rect class="cls-1" x="115.15" y="54.55" width="6.06" height="6.06"/>
          <rect class="cls-1" x="121.21" y="54.55" width="6.06" height="6.06"/>
          <rect class="cls-1" x="127.27" y="54.55" width="6.06" height="6.06"/>
          <rect class="cls-1" x="139.39" y="54.55" width="6.06" height="6.06"/>
          <rect class="cls-1" x="145.45" y="54.55" width="6.06" height="6.06"/>
          <rect class="cls-1" x="151.51" y="54.55" width="6.06" height="6.06"/>
          <rect class="cls-1" x="163.63" y="54.55" width="6.06" height="6.06"/>
          <rect class="cls-1" x="169.69" y="54.55" width="6.06" height="6.06"/>
          <rect class="cls-1" x="175.75" y="54.55" width="6.06" height="6.06"/>
          <rect class="cls-1" x="12.13" y="60.61" width="6.06" height="6.06"/>
          <rect class="cls-1" x="18.19" y="60.61" width="6.06" height="6.06"/>
          <rect class="cls-1" x="24.25" y="60.61" width="6.06" height="6.06"/>
          <rect class="cls-1" x="36.37" y="60.61" width="6.06" height="6.06"/>
          <rect class="cls-1" x="42.43" y="60.61" width="6.06" height="6.06"/>
          <rect class="cls-1" x="60.61" y="60.61" width="6.06" height="6.06"/>
          <rect class="cls-1" x="66.67" y="60.61" width="6.06" height="6.06"/>
          <rect class="cls-1" x="72.73" y="60.61" width="6.06" height="6.06"/>
          <rect class="cls-1" x="90.91" y="60.61" width="6.06" height="6.06"/>
          <rect class="cls-1" x="96.97" y="60.61" width="6.06" height="6.06"/>
          <rect class="cls-1" x="103.03" y="60.61" width="6.06" height="6.06"/>
          <rect class="cls-1" x="109.09" y="60.61" width="6.06" height="6.06"/>
          <rect class="cls-1" x="115.15" y="60.61" width="6.06" height="6.06"/>
          <rect class="cls-1" x="121.21" y="60.61" width="6.06" height="6.06"/>
          <rect class="cls-1" x="133.33" y="60.61" width="6.06" height="6.06"/>
          <rect class="cls-1" x="139.39" y="60.61" width="6.06" height="6.06"/>
          <rect class="cls-1" x="151.51" y="60.61" width="6.06" height="6.06"/>
          <rect class="cls-1" x="163.63" y="60.61" width="6.06" height="6.06"/>
          <rect class="cls-1" x="187.87" y="60.61" width="6.06" height="6.06"/>
          <rect class="cls-1" x="193.93" y="60.61" width="6.06" height="6.06"/>
          <rect class="cls-1" x="6.07" y="66.67" width="6.06" height="6.06"/>
          <rect class="cls-1" x="24.25" y="66.67" width="6.06" height="6.06"/>
          <rect class="cls-1" x="30.31" y="66.67" width="6.06" height="6.06"/>
          <rect class="cls-1" x="42.43" y="66.67" width="6.06" height="6.06"/>
          <rect class="cls-1" x="54.55" y="66.67" width="6.06" height="6.06"/>
          <rect class="cls-1" x="133.33" y="66.67" width="6.06" height="6.06"/>
          <rect class="cls-1" x="139.39" y="66.67" width="6.06" height="6.06"/>
          <rect class="cls-1" x="157.57" y="66.67" width="6.06" height="6.06"/>
          <rect class="cls-1" x="163.63" y="66.67" width="6.06" height="6.06"/>
          <rect class="cls-1" x="169.69" y="66.67" width="6.06" height="6.06"/>
          <rect class="cls-1" x="181.81" y="66.67" width="6.06" height="6.06"/>
          <rect class="cls-1" x="187.87" y="66.67" width="6.06" height="6.06"/>
          <rect class="cls-1" x="193.93" y="66.67" width="6.06" height="6.06"/>
          <rect class="cls-1" x="12.13" y="72.73" width="6.06" height="6.06"/>
          <rect class="cls-1" x="24.25" y="72.73" width="6.06" height="6.06"/>
          <rect class="cls-1" x="36.37" y="72.73" width="6.06" height="6.06"/>
          <rect class="cls-1" x="48.49" y="72.73" width="6.06" height="6.06"/>
          <rect class="cls-1" x="139.39" y="72.73" width="6.06" height="6.06"/>
          <rect class="cls-1" x="145.45" y="72.73" width="6.06" height="6.06"/>
          <rect class="cls-1" x="157.57" y="72.73" width="6.06" height="6.06"/>
          <rect class="cls-1" x="163.63" y="72.73" width="6.06" height="6.06"/>
          <rect class="cls-1" x="169.69" y="72.73" width="6.06" height="6.06"/>
          <rect class="cls-1" x="175.75" y="72.73" width="6.06" height="6.06"/>
          <rect class="cls-1" x="187.87" y="72.73" width="6.06" height="6.06"/>
          <rect class="cls-1" x="193.93" y="72.73" width="6.06" height="6.06"/>
          <rect class="cls-1" x="0" y="78.79" width="6.06" height="6.06"/>
          <rect class="cls-1" x="18.19" y="78.79" width="6.06" height="6.06"/>
          <rect class="cls-1" x="30.31" y="78.79" width="6.06" height="6.06"/>
          <rect class="cls-1" x="42.43" y="78.79" width="6.06" height="6.06"/>
          <rect class="cls-1" x="48.49" y="78.79" width="6.06" height="6.06"/>
          <rect class="cls-1" x="139.39" y="78.79" width="6.06" height="6.06"/>
          <rect class="cls-1" x="145.45" y="78.79" width="6.06" height="6.06"/>
          <rect class="cls-1" x="163.63" y="78.79" width="6.06" height="6.06"/>
          <rect class="cls-1" x="169.69" y="78.79" width="6.06" height="6.06"/>
          <rect class="cls-1" x="175.75" y="78.79" width="6.06" height="6.06"/>
          <rect class="cls-1" x="187.87" y="78.79" width="6.06" height="6.06"/>
          <rect class="cls-1" x="0" y="84.85" width="6.06" height="6.06"/>
          <rect class="cls-1" x="6.07" y="84.85" width="6.06" height="6.06"/>
          <rect class="cls-1" x="24.25" y="84.85" width="6.06" height="6.06"/>
          <rect class="cls-1" x="36.37" y="84.85" width="6.06" height="6.06"/>
          <rect class="cls-1" x="42.43" y="84.85" width="6.06" height="6.06"/>
          <rect class="cls-1" x="48.49" y="84.85" width="6.06" height="6.06"/>
          <rect class="cls-1" x="54.55" y="84.85" width="6.06" height="6.06"/>
          <rect class="cls-1" x="60.61" y="84.85" width="6.06" height="6.06"/>
          <rect class="cls-1" x="145.45" y="84.85" width="6.06" height="6.06"/>
          <rect class="cls-1" x="163.63" y="84.85" width="6.06" height="6.06"/>
          <rect class="cls-1" x="6.07" y="90.91" width="6.06" height="6.06"/>
          <rect class="cls-1" x="24.25" y="90.91" width="6.06" height="6.06"/>
          <rect class="cls-1" x="42.43" y="90.91" width="6.06" height="6.06"/>
          <rect class="cls-1" x="48.49" y="90.91" width="6.06" height="6.06"/>
          <rect class="cls-1" x="139.39" y="90.91" width="6.06" height="6.06"/>
          <rect class="cls-1" x="145.45" y="90.91" width="6.06" height="6.06"/>
          <rect class="cls-1" x="151.51" y="90.91" width="6.06" height="6.06"/>
          <rect class="cls-1" x="163.63" y="90.91" width="6.06" height="6.06"/>
          <rect class="cls-1" x="175.75" y="90.91" width="6.06" height="6.06"/>
          <rect class="cls-1" x="0" y="96.97" width="6.06" height="6.06"/>
          <rect class="cls-1" x="12.13" y="96.97" width="6.06" height="6.06"/>
          <rect class="cls-1" x="30.31" y="96.97" width="6.06" height="6.06"/>
          <rect class="cls-1" x="36.37" y="96.97" width="6.06" height="6.06"/>
          <rect class="cls-1" x="48.49" y="96.97" width="6.06" height="6.06"/>
          <rect class="cls-1" x="54.55" y="96.97" width="6.06" height="6.06"/>
          <rect class="cls-1" x="139.39" y="96.97" width="6.06" height="6.06"/>
          <rect class="cls-1" x="157.57" y="96.97" width="6.06" height="6.06"/>
          <rect class="cls-1" x="169.69" y="96.97" width="6.06" height="6.06"/>
          <rect class="cls-1" x="175.75" y="96.97" width="6.06" height="6.06"/>
          <rect class="cls-1" x="181.81" y="96.97" width="6.06" height="6.06"/>
          <rect class="cls-1" x="0" y="103.03" width="6.06" height="6.06"/>
          <rect class="cls-1" x="12.13" y="103.03" width="6.06" height="6.06"/>
          <rect class="cls-1" x="48.49" y="103.03" width="6.06" height="6.06"/>
          <rect class="cls-1" x="54.55" y="103.03" width="6.06" height="6.06"/>
          <rect class="cls-1" x="133.33" y="103.03" width="6.06" height="6.06"/>
          <rect class="cls-1" x="145.45" y="103.03" width="6.06" height="6.06"/>
          <rect class="cls-1" x="151.51" y="103.03" width="6.06" height="6.06"/>
          <rect class="cls-1" x="157.57" y="103.03" width="6.06" height="6.06"/>
          <rect class="cls-1" x="169.69" y="103.03" width="6.06" height="6.06"/>
          <rect class="cls-1" x="175.75" y="103.03" width="6.06" height="6.06"/>
          <rect class="cls-1" x="0" y="109.09" width="6.06" height="6.06"/>
          <rect class="cls-1" x="30.31" y="109.09" width="6.06" height="6.06"/>
          <rect class="cls-1" x="36.37" y="109.09" width="6.06" height="6.06"/>
          <rect class="cls-1" x="48.49" y="109.09" width="6.06" height="6.06"/>
          <rect class="cls-1" x="139.39" y="109.09" width="6.06" height="6.06"/>
          <rect class="cls-1" x="151.51" y="109.09" width="6.06" height="6.06"/>
          <rect class="cls-1" x="157.57" y="109.09" width="6.06" height="6.06"/>
          <rect class="cls-1" x="163.63" y="109.09" width="6.06" height="6.06"/>
          <rect class="cls-1" x="175.75" y="109.09" width="6.06" height="6.06"/>
          <rect class="cls-1" x="181.81" y="109.09" width="6.06" height="6.06"/>
          <rect class="cls-1" x="187.87" y="109.09" width="6.06" height="6.06"/>
          <rect class="cls-1" x="193.93" y="109.09" width="6.06" height="6.06"/>
          <rect class="cls-1" x="24.25" y="115.15" width="6.06" height="6.06"/>
          <rect class="cls-1" x="54.55" y="115.15" width="6.06" height="6.06"/>
          <rect class="cls-1" x="60.61" y="115.15" width="6.06" height="6.06"/>
          <rect class="cls-1" x="139.39" y="115.15" width="6.06" height="6.06"/>
          <rect class="cls-1" x="145.45" y="115.15" width="6.06" height="6.06"/>
          <rect class="cls-1" x="157.57" y="115.15" width="6.06" height="6.06"/>
          <rect class="cls-1" x="163.63" y="115.15" width="6.06" height="6.06"/>
          <rect class="cls-1" x="175.75" y="115.15" width="6.06" height="6.06"/>
          <rect class="cls-1" x="181.81" y="115.15" width="6.06" height="6.06"/>
          <rect class="cls-1" x="193.93" y="115.15" width="6.06" height="6.06"/>
          <rect class="cls-1" x="0" y="121.21" width="6.06" height="6.06"/>
          <rect class="cls-1" x="6.07" y="121.21" width="6.06" height="6.06"/>
          <rect class="cls-1" x="24.25" y="121.21" width="6.06" height="6.06"/>
          <rect class="cls-1" x="36.37" y="121.21" width="6.06" height="6.06"/>
          <rect class="cls-1" x="48.49" y="121.21" width="6.06" height="6.06"/>
          <rect class="cls-1" x="60.61" y="121.21" width="6.06" height="6.06"/>
          <rect class="cls-1" x="145.45" y="121.21" width="6.06" height="6.06"/>
          <rect class="cls-1" x="151.51" y="121.21" width="6.06" height="6.06"/>
          <rect class="cls-1" x="163.63" y="121.21" width="6.06" height="6.06"/>
          <rect class="cls-1" x="175.75" y="121.21" width="6.06" height="6.06"/>
          <rect class="cls-1" x="187.87" y="121.21" width="6.06" height="6.06"/>
          <rect class="cls-1" x="0" y="127.27" width="6.06" height="6.06"/>
          <rect class="cls-1" x="18.19" y="127.27" width="6.06" height="6.06"/>
          <rect class="cls-1" x="24.25" y="127.27" width="6.06" height="6.06"/>
          <rect class="cls-1" x="42.43" y="127.27" width="6.06" height="6.06"/>
          <rect class="cls-1" x="54.55" y="127.27" width="6.06" height="6.06"/>
          <rect class="cls-1" x="133.33" y="127.27" width="6.06" height="6.06"/>
          <rect class="cls-1" x="151.51" y="127.27" width="6.06" height="6.06"/>
          <rect class="cls-1" x="157.57" y="127.27" width="6.06" height="6.06"/>
          <rect class="cls-1" x="163.63" y="127.27" width="6.06" height="6.06"/>
          <rect class="cls-1" x="169.69" y="127.27" width="6.06" height="6.06"/>
          <rect class="cls-1" x="181.81" y="127.27" width="6.06" height="6.06"/>
          <rect class="cls-1" x="0" y="133.33" width="6.06" height="6.06"/>
          <rect class="cls-1" x="24.25" y="133.33" width="6.06" height="6.06"/>
          <rect class="cls-1" x="30.31" y="133.33" width="6.06" height="6.06"/>
          <rect class="cls-1" x="36.37" y="133.33" width="6.06" height="6.06"/>
          <rect class="cls-1" x="42.43" y="133.33" width="6.06" height="6.06"/>
          <rect class="cls-1" x="48.49" y="133.33" width="6.06" height="6.06"/>
          <rect class="cls-1" x="54.55" y="133.33" width="6.06" height="6.06"/>
          <rect class="cls-1" x="66.67" y="133.33" width="6.06" height="6.06"/>
          <rect class="cls-1" x="72.73" y="133.33" width="6.06" height="6.06"/>
          <rect class="cls-1" x="84.85" y="133.33" width="6.06" height="6.06"/>
          <rect class="cls-1" x="121.21" y="133.33" width="6.06" height="6.06"/>
          <rect class="cls-1" x="127.27" y="133.33" width="6.06" height="6.06"/>
          <rect class="cls-1" x="145.45" y="133.33" width="6.06" height="6.06"/>
          <rect class="cls-1" x="157.57" y="133.33" width="6.06" height="6.06"/>
          <rect class="cls-1" x="193.93" y="133.33" width="6.06" height="6.06"/>
          <rect class="cls-1" x="0" y="139.39" width="6.06" height="6.06"/>
          <rect class="cls-1" x="18.19" y="139.39" width="6.06" height="6.06"/>
          <rect class="cls-1" x="30.31" y="139.39" width="6.06" height="6.06"/>
          <rect class="cls-1" x="48.49" y="139.39" width="6.06" height="6.06"/>
          <rect class="cls-1" x="54.55" y="139.39" width="6.06" height="6.06"/>
          <rect class="cls-1" x="66.67" y="139.39" width="6.06" height="6.06"/>
          <rect class="cls-1" x="72.73" y="139.39" width="6.06" height="6.06"/>
          <rect class="cls-1" x="78.79" y="139.39" width="6.06" height="6.06"/>
          <rect class="cls-1" x="96.97" y="139.39" width="6.06" height="6.06"/>
          <rect class="cls-1" x="103.03" y="139.39" width="6.06" height="6.06"/>
          <rect class="cls-1" x="109.09" y="139.39" width="6.06" height="6.06"/>
          <rect class="cls-1" x="133.33" y="139.39" width="6.06" height="6.06"/>
          <rect class="cls-1" x="169.69" y="139.39" width="6.06" height="6.06"/>
          <rect class="cls-1" x="181.81" y="139.39" width="6.06" height="6.06"/>
          <rect class="cls-1" x="187.87" y="139.39" width="6.06" height="6.06"/>
          <rect class="cls-1" x="193.93" y="139.39" width="6.06" height="6.06"/>
          <rect class="cls-1" x="0" y="145.45" width="6.06" height="6.06"/>
          <rect class="cls-1" x="6.07" y="145.45" width="6.06" height="6.06"/>
          <rect class="cls-1" x="36.37" y="145.45" width="6.06" height="6.06"/>
          <rect class="cls-1" x="42.43" y="145.45" width="6.06" height="6.06"/>
          <rect class="cls-1" x="54.55" y="145.45" width="6.06" height="6.06"/>
          <rect class="cls-1" x="60.61" y="145.45" width="6.06" height="6.06"/>
          <rect class="cls-1" x="72.73" y="145.45" width="6.06" height="6.06"/>
          <rect class="cls-1" x="96.97" y="145.45" width="6.06" height="6.06"/>
          <rect class="cls-1" x="115.15" y="145.45" width="6.06" height="6.06"/>
          <rect class="cls-1" x="133.33" y="145.45" width="6.06" height="6.06"/>
          <rect class="cls-1" x="145.45" y="145.45" width="6.06" height="6.06"/>
          <rect class="cls-1" x="151.51" y="145.45" width="6.06" height="6.06"/>
          <rect class="cls-1" x="157.57" y="145.45" width="6.06" height="6.06"/>
          <rect class="cls-1" x="163.63" y="145.45" width="6.06" height="6.06"/>
          <rect class="cls-1" x="169.69" y="145.45" width="6.06" height="6.06"/>
          <rect class="cls-1" x="175.75" y="145.45" width="6.06" height="6.06"/>
          <rect class="cls-1" x="48.49" y="151.51" width="6.06" height="6.06"/>
          <rect class="cls-1" x="54.55" y="151.51" width="6.06" height="6.06"/>
          <rect class="cls-1" x="66.67" y="151.51" width="6.06" height="6.06"/>
          <rect class="cls-1" x="72.73" y="151.51" width="6.06" height="6.06"/>
          <rect class="cls-1" x="78.79" y="151.51" width="6.06" height="6.06"/>
          <rect class="cls-1" x="96.97" y="151.51" width="6.06" height="6.06"/>
          <rect class="cls-1" x="109.09" y="151.51" width="6.06" height="6.06"/>
          <rect class="cls-1" x="133.33" y="151.51" width="6.06" height="6.06"/>
          <rect class="cls-1" x="139.39" y="151.51" width="6.06" height="6.06"/>
          <rect class="cls-1" x="145.45" y="151.51" width="6.06" height="6.06"/>
          <rect class="cls-1" x="169.69" y="151.51" width="6.06" height="6.06"/>
          <rect class="cls-1" x="181.81" y="151.51" width="6.06" height="6.06"/>
          <rect class="cls-1" x="48.49" y="157.57" width="6.06" height="6.06"/>
          <rect class="cls-1" x="84.85" y="157.57" width="6.06" height="6.06"/>
          <rect class="cls-1" x="90.91" y="157.57" width="6.06" height="6.06"/>
          <rect class="cls-1" x="96.97" y="157.57" width="6.06" height="6.06"/>
          <rect class="cls-1" x="103.03" y="157.57" width="6.06" height="6.06"/>
          <rect class="cls-1" x="109.09" y="157.57" width="6.06" height="6.06"/>
          <rect class="cls-1" x="115.15" y="157.57" width="6.06" height="6.06"/>
          <rect class="cls-1" x="121.21" y="157.57" width="6.06" height="6.06"/>
          <rect class="cls-1" x="127.27" y="157.57" width="6.06" height="6.06"/>
          <rect class="cls-1" x="133.33" y="157.57" width="6.06" height="6.06"/>
          <rect class="cls-1" x="139.39" y="157.57" width="6.06" height="6.06"/>
          <rect class="cls-1" x="145.45" y="157.57" width="6.06" height="6.06"/>
          <rect class="cls-1" x="157.57" y="157.57" width="6.06" height="6.06"/>
          <rect class="cls-1" x="169.69" y="157.57" width="6.06" height="6.06"/>
          <rect class="cls-1" x="175.75" y="157.57" width="6.06" height="6.06"/>
          <rect class="cls-1" x="181.81" y="157.57" width="6.06" height="6.06"/>
          <rect class="cls-1" x="54.55" y="163.63" width="6.06" height="6.06"/>
          <rect class="cls-1" x="72.73" y="163.63" width="6.06" height="6.06"/>
          <rect class="cls-1" x="84.85" y="163.63" width="6.06" height="6.06"/>
          <rect class="cls-1" x="90.91" y="163.63" width="6.06" height="6.06"/>
          <rect class="cls-1" x="103.03" y="163.63" width="6.06" height="6.06"/>
          <rect class="cls-1" x="109.09" y="163.63" width="6.06" height="6.06"/>
          <rect class="cls-1" x="145.45" y="163.63" width="6.06" height="6.06"/>
          <rect class="cls-1" x="169.69" y="163.63" width="6.06" height="6.06"/>
          <rect class="cls-1" x="175.75" y="163.63" width="6.06" height="6.06"/>
          <rect class="cls-1" x="181.81" y="163.63" width="6.06" height="6.06"/>
          <rect class="cls-1" x="187.87" y="163.63" width="6.06" height="6.06"/>
          <rect class="cls-1" x="48.49" y="169.69" width="6.06" height="6.06"/>
          <rect class="cls-1" x="54.55" y="169.69" width="6.06" height="6.06"/>
          <rect class="cls-1" x="60.61" y="169.69" width="6.06" height="6.06"/>
          <rect class="cls-1" x="78.79" y="169.69" width="6.06" height="6.06"/>
          <rect class="cls-1" x="84.85" y="169.69" width="6.06" height="6.06"/>
          <rect class="cls-1" x="96.97" y="169.69" width="6.06" height="6.06"/>
          <rect class="cls-1" x="115.15" y="169.69" width="6.06" height="6.06"/>
          <rect class="cls-1" x="121.21" y="169.69" width="6.06" height="6.06"/>
          <rect class="cls-1" x="127.27" y="169.69" width="6.06" height="6.06"/>
          <rect class="cls-1" x="139.39" y="169.69" width="6.06" height="6.06"/>
          <rect class="cls-1" x="145.45" y="169.69" width="6.06" height="6.06"/>
          <rect class="cls-1" x="151.51" y="169.69" width="6.06" height="6.06"/>
          <rect class="cls-1" x="157.57" y="169.69" width="6.06" height="6.06"/>
          <rect class="cls-1" x="163.63" y="169.69" width="6.06" height="6.06"/>
          <rect class="cls-1" x="169.69" y="169.69" width="6.06" height="6.06"/>
          <rect class="cls-1" x="175.75" y="169.69" width="6.06" height="6.06"/>
          <rect class="cls-1" x="187.87" y="169.69" width="6.06" height="6.06"/>
          <rect class="cls-1" x="48.49" y="175.75" width="6.06" height="6.06"/>
          <rect class="cls-1" x="84.85" y="175.75" width="6.06" height="6.06"/>
          <rect class="cls-1" x="90.91" y="175.75" width="6.06" height="6.06"/>
          <rect class="cls-1" x="115.15" y="175.75" width="6.06" height="6.06"/>
          <rect class="cls-1" x="127.27" y="175.75" width="6.06" height="6.06"/>
          <rect class="cls-1" x="139.39" y="175.75" width="6.06" height="6.06"/>
          <rect class="cls-1" x="145.45" y="175.75" width="6.06" height="6.06"/>
          <rect class="cls-1" x="151.51" y="175.75" width="6.06" height="6.06"/>
          <rect class="cls-1" x="163.63" y="175.75" width="6.06" height="6.06"/>
          <rect class="cls-1" x="175.75" y="175.75" width="6.06" height="6.06"/>
          <rect class="cls-1" x="181.81" y="175.75" width="6.06" height="6.06"/>
          <rect class="cls-1" x="187.87" y="175.75" width="6.06" height="6.06"/>
          <rect class="cls-1" x="60.61" y="181.81" width="6.06" height="6.06"/>
          <rect class="cls-1" x="66.67" y="181.81" width="6.06" height="6.06"/>
          <rect class="cls-1" x="78.79" y="181.81" width="6.06" height="6.06"/>
          <rect class="cls-1" x="84.85" y="181.81" width="6.06" height="6.06"/>
          <rect class="cls-1" x="90.91" y="181.81" width="6.06" height="6.06"/>
          <rect class="cls-1" x="96.97" y="181.81" width="6.06" height="6.06"/>
          <rect class="cls-1" x="103.03" y="181.81" width="6.06" height="6.06"/>
          <rect class="cls-1" x="109.09" y="181.81" width="6.06" height="6.06"/>
          <rect class="cls-1" x="115.15" y="181.81" width="6.06" height="6.06"/>
          <rect class="cls-1" x="139.39" y="181.81" width="6.06" height="6.06"/>
          <rect class="cls-1" x="145.45" y="181.81" width="6.06" height="6.06"/>
          <rect class="cls-1" x="169.69" y="181.81" width="6.06" height="6.06"/>
          <rect class="cls-1" x="181.81" y="181.81" width="6.06" height="6.06"/>
          <rect class="cls-1" x="187.87" y="181.81" width="6.06" height="6.06"/>
          <rect class="cls-1" x="193.93" y="181.81" width="6.06" height="6.06"/>
          <rect class="cls-1" x="60.61" y="187.87" width="6.06" height="6.06"/>
          <rect class="cls-1" x="103.03" y="187.87" width="6.06" height="6.06"/>
          <rect class="cls-1" x="127.27" y="187.87" width="6.06" height="6.06"/>
          <rect class="cls-1" x="139.39" y="187.87" width="6.06" height="6.06"/>
          <rect class="cls-1" x="151.51" y="187.87" width="6.06" height="6.06"/>
          <rect class="cls-1" x="157.57" y="187.87" width="6.06" height="6.06"/>
          <rect class="cls-1" x="181.81" y="187.87" width="6.06" height="6.06"/>
          <rect class="cls-1" x="187.87" y="187.87" width="6.06" height="6.06"/>
          <rect class="cls-1" x="193.93" y="187.87" width="6.06" height="6.06"/>
          <rect class="cls-1" x="54.55" y="193.93" width="6.06" height="6.06"/>
          <rect class="cls-1" x="66.67" y="193.93" width="6.06" height="6.06"/>
          <rect class="cls-1" x="72.73" y="193.93" width="6.06" height="6.06"/>
          <rect class="cls-1" x="96.97" y="193.93" width="6.06" height="6.06"/>
          <rect class="cls-1" x="115.15" y="193.93" width="6.06" height="6.06"/>
          <rect class="cls-1" x="127.27" y="193.93" width="6.06" height="6.06"/>
          <rect class="cls-1" x="139.39" y="193.93" width="6.06" height="6.06"/>
          <rect class="cls-1" x="145.45" y="193.93" width="6.06" height="6.06"/>
          <rect class="cls-1" x="169.69" y="193.93" width="6.06" height="6.06"/>
          <rect class="cls-1" x="175.75" y="193.93" width="6.06" height="6.06"/>
          <rect class="cls-1" x="181.81" y="193.93" width="6.06" height="6.06"/>
        </g>
        <g>
          <rect class="cls-3" x="3.03" y="3.03" width="36.36" height="36.36"/>
          <rect class="cls-1" x="12.12" y="12.12" width="18.18" height="18.18"/>
          <rect class="cls-3" x="160.61" y="3.03" width="36.36" height="36.36"/>
          <rect class="cls-1" x="169.7" y="12.12" width="18.18" height="18.18"/>
          <rect class="cls-3" x="3.03" y="160.61" width="36.36" height="36.36"/>
          <rect class="cls-1" x="12.12" y="169.7" width="18.18" height="18.18"/>
        </g>
      </g>
      <g>
        <path class="cls-2" d="M109.66,113.89c.5.2.86.05.23-.46-3.8-2.49-6.05-8.53-6.26-13.66v-10.25c.79.51,2.34.59,2.34.59h5.71c1.53,0,2.34.54,2.92,1.95.5-2.45-1.01-4.71-3.38-4.71h-6.53c-1.63.12-3.94-1.33-3.94-1.33v11.2c0,11.37,6.09,16.19,8.9,16.65h0Z"/>
        <path class="cls-2" d="M99.25,86.03s-2.18,1.44-3.94,1.33h-6.49c-2.34,0-3.94,2.26-3.43,4.71.67-1.41,1.47-1.95,3.01-1.95h5.72s1.51-.08,2.32-.59v10.25c-.22,5.12-2.49,11.17-6.34,13.66-.65.5-.27.66.2.46,2.88-.46,8.95-5.28,8.95-16.65v-11.2h0Z"/>
      </g>
    </g>
  </g>
</svg>