<?xml version="1.0" encoding="UTF-8"?>
<svg id="Layer_1" data-name="Layer 1" xmlns="http://www.w3.org/2000/svg" viewBox="0 0 20 20" width="20" height="20">
  <path d="M8.64,18.59c0-.79.59-1.38,1.38-1.38.69,0,1.33.59,1.33,1.38,0,.74-.64,1.38-1.33,1.38-.79,0-1.38-.64-1.38-1.38Z"/>
  <path d="M19.93,4.03c.35-1.63-.69-3.11-2.32-3.11h-4.44c-1.13.05-2.66-.89-2.66-.89h0v7.44h0c0,7.54,4.14,10.75,6.06,11.04.35.15.59.05.15-.3-2.61-1.68-4.14-5.67-4.29-9.07h0V2.35h0c.54.34,1.58.39,1.58.39h3.94c1.04,0,1.58.35,1.97,1.28h0Z"/>
  <path d="M.06,4.03C-.28,2.4.8.92,2.38.92h4.44c1.18.05,2.66-.89,2.66-.89h0v7.44h0c0,7.54-4.14,10.75-6.06,11.04-.35.15-.59.05-.15-.3,2.61-1.68,4.14-5.67,4.29-9.07h0V2.35h0c-.54.34-1.58.39-1.58.39h-3.9c-1.04,0-1.58.35-2.02,1.28"/>
</svg>